PathFileType	4	(X/Y/Z)	C:\Users\Basilio\Documents\Thesis Gigler\squatting_fais\c3dfiles\058\SLS_back_pre3\markers_experimental.trc
DataRate	CameraRate	NumFrames	NumMarkers	Units	OrigDataRate	OrigDataStartFrame	OrigNumFrames
200.000000	200.000000	4	59	mm	200.000000	902	1203
Frame#	Time	FHD			LBHD			RBHD			C7			T10			CLAV			LSHO			LUUPA			LMUPA			LDUPA			LLEP			LMEP			LUL			LRFIN			RSHO			RUPA1			RMUPA			RDUPA			RLEP			RMEP			RUL			RUFIN			LASI			RASI			USACR			LSACR			RSACR			LTHI1			LTHI2			LTHI3			LTHI4			LLFC			LMFC			LTIB1			LTIB2			LTIB3			LTIB4			LLMAL			LMMAL			LHEE			LMT1			LMT2			LMT5			RTHI			RTHI2			RTHI3			RTHI4			RLFC			RMFC			RTIB1			RTIB2			RTIB3			RTIB4			RLMAL			RMMAL			RHEE			RMT1			RMT2			RMT5			
		X1	Y1	Z1	X2	Y2	Z2	X3	Y3	Z3	X4	Y4	Z4	X5	Y5	Z5	X6	Y6	Z6	X7	Y7	Z7	X8	Y8	Z8	X9	Y9	Z9	X10	Y10	Z10	X11	Y11	Z11	X12	Y12	Z12	X13	Y13	Z13	X14	Y14	Z14	X15	Y15	Z15	X16	Y16	Z16	X17	Y17	Z17	X18	Y18	Z18	X19	Y19	Z19	X20	Y20	Z20	X21	Y21	Z21	X22	Y22	Z22	X23	Y23	Z23	X24	Y24	Z24	X25	Y25	Z25	X26	Y26	Z26	X27	Y27	Z27	X28	Y28	Z28	X29	Y29	Z29	X30	Y30	Z30	X31	Y31	Z31	X32	Y32	Z32	X33	Y33	Z33	X34	Y34	Z34	X35	Y35	Z35	X36	Y36	Z36	X37	Y37	Z37	X38	Y38	Z38	X39	Y39	Z39	X40	Y40	Z40	X41	Y41	Z41	X42	Y42	Z42	X43	Y43	Z43	X44	Y44	Z44	X45	Y45	Z45	X46	Y46	Z46	X47	Y47	Z47	X48	Y48	Z48	X49	Y49	Z49	X50	Y50	Z50	X51	Y51	Z51	X52	Y52	Z52	X53	Y53	Z53	X54	Y54	Z54	X55	Y55	Z55	X56	Y56	Z56	X57	Y57	Z57	X58	Y58	Z58	X59	Y59	Z59	

903	4.51	-231.1856994628907	1808.29931640625	-627.4188842773439	-386.6649780273439	1761.845092773438	-707.6774291992189	-214.1172485351563	1817.094604492188	-770.5540161132815	-400.8146057128907	1599.8515625	-716.2086791992189	-416.8863525390626	1296.205200195313	-707.6779174804689	-242.1395568847657	1554.43359375	-704.2041625976564	-259.0516967773438	1605.633178710938	-857.237243652344	-109.8627243041992	1543.340698242188	-972.965026855469	-84.71638488769533	1580.016967773438	-947.9620361328127	-40.03154754638673	1545.462280273438	-967.5725708007815	36.35437774658204	1550.593139648438	-953.3548583984377	42.93748855590821	1493.4892578125	-921.5176391601565	304.3101196289063	1595.289794921875	-924.204772949219	399.705535888672	1595.908081054688	-844.749450683594	-266.3441467285157	1605.147338867188	-551.1580200195314	-105.771598815918	1516.713134765625	-450.5704040527345	-83.67291259765626	1555.744750976563	-474.0220031738282	-36.7119483947754	1525.690795898438	-454.5711364746095	30.382719039917	1518.01171875	-466.1071166992189	35.23197555541993	1460.349975585938	-517.3930664062501	298.2059631347657	1562.897216796875	-482.3953552246095	386.8579406738282	1582.539306640625	-553.2623901367189	-254.1652984619141	1094.233520507813	-854.8023071289065	-245.131820678711	1070.350708007813	-616.6140747070314	-436.3932189941407	1180.513793945313	-707.4608154296876	-447.1271362304689	1152.490112304688	-737.6312255859376	-440.0042419433595	1146.058349609375	-680.4912719726564	-257.7814636230469	832.297790527344	-957.6753540039065	-212.7226104736329	759.0918579101564	-959.4840087890627	-169.1049499511719	761.9372558593751	-932.8382568359377	-233.726547241211	701.3822021484376	-960.7541503906252	-243.1213836669922	623.9099731445314	-949.3372802734377	-219.1405487060547	593.2567138671876	-821.1543579101565	-327.8845825195313	528.5397949218751	-915.527770996094	-385.367156982422	585.7763061523439	-945.738952636719	-379.7914428710938	541.3683471679689	-938.578308105469	-451.8739318847657	515.2709960937501	-903.9172973632815	-654.9019165039064	549.0676269531251	-879.8182373046877	-625.2883300781251	497.9472045898439	-804.1823730468752	-632.3641967773439	596.5635986328126	-814.5142822265627	-749.6571655273439	410.1372985839845	-800.8190917968752	nan	nan	nan	-783.8139648437502	476.0503540039064	-877.800964355469	-372.5473937988282	870.7627563476565	-562.4627075195314	-341.5122070312501	811.9597778320315	-563.4494018554689	-308.1289062500001	808.7519531250002	-565.4136352539064	-376.2323913574219	738.8861083984376	-586.9765014648439	-381.3918762207032	557.0990600585939	-618.0188598632814	-351.8335876464844	554.5151977539064	-753.2082519531251	-320.9041442871094	362.0267028808594	-719.8791503906251	-352.3816223144532	276.2891845703126	-662.4205322265626	-316.1028442382813	274.9125976562501	-693.8502807617189	-322.7054443359376	233.3863983154297	-732.9208374023439	-376.1423645019532	119.156723022461	-702.7471313476564	-345.9590759277344	144.94775390625	-787.9578247070315	-439.9358825683595	101.6623306274414	-765.2983398437501	-229.3020935058594	59.80334472656251	-777.3330688476565	-223.1220703125001	59.6785354614258	-725.1716308593751	-273.5151672363282	28.87800979614259	-673.4009399414064	
904	4.515	-231.4671783447266	1808.407958984375	-627.6080322265626	-386.8316955566407	1761.822143554688	-707.7173461914064	-214.5420379638672	1817.124877929688	-770.5914306640627	-401.1551208496095	1599.77783203125	-716.1766357421876	-417.049041748047	1296.148681640625	-707.5280761718751	-242.3724517822266	1554.423706054688	-704.1416625976564	-259.3276367187501	1605.58544921875	-857.2506103515627	-110.0891876220703	1543.299560546875	-972.895202636719	-84.84114837646486	1579.942504882813	-947.9168701171877	-40.10273361206055	1545.36865234375	-967.5286254882815	36.22054672241212	1550.460083007813	-953.203552246094	42.71212387084962	1493.501098632813	-921.3640747070315	304.1449279785157	1595.111083984375	-924.0157470703127	399.5253906250001	1595.662841796875	-844.5064086914065	-266.5098571777344	1605.186889648438	-551.2073364257814	-105.8982086181641	1516.625122070313	-450.5931091308595	-83.85793304443361	1555.702270507813	-473.9874877929689	-36.84310913085938	1525.693969726563	-454.6033935546876	30.22831726074219	1517.947387695313	-466.1233825683595	35.01834106445313	1460.388427734375	-517.4328613281251	298.0703430175782	1562.8193359375	-482.4438476562501	386.3908691406251	1582.5625	-553.2655029296876	-253.9405975341797	1094.221801757813	-854.6160278320315	-245.045150756836	1070.4189453125	-616.4585571289064	-436.5105895996095	1180.384643554688	-707.2592163085939	-447.0765075683595	1152.417602539063	-737.4514160156251	-439.9128723144532	1145.962646484375	-680.3690185546876	-257.9572753906251	832.2295532226565	-957.3335571289065	-212.4176635742188	759.2165527343751	-959.052429199219	-168.7729187011719	762.2941284179689	-932.3242187500002	-233.0977630615235	701.5146484375001	-960.2453613281252	-242.5655822753907	624.0277709960939	-948.9561157226565	-218.6240997314454	593.3991699218751	-820.7862548828127	-327.6190185546876	529.1133422851564	-914.886657714844	-384.7020874023439	586.1347045898439	-945.300964355469	-379.9716186523438	542.1560058593751	-938.0996704101565	-451.4991455078126	516.0694580078126	-903.6548461914065	-654.4124145507814	550.3194580078126	-879.2925415039065	-624.6129150390626	499.1430053710939	-804.5802001953127	-631.3503417968751	598.2756347656251	-813.847839355469	-749.4572753906251	411.5863037109376	-800.360534667969	nan	nan	nan	-783.5727539062502	477.8397521972657	-877.5132446289065	-372.1665344238282	870.6156005859377	-562.3453369140626	-341.0176391601563	811.8482055664065	-563.2947387695314	-307.8175659179688	808.685485839844	-565.3022460937501	-375.8960571289063	738.8232421875001	-586.8443603515626	-380.8723449707032	557.0396118164064	-617.9639892578126	-351.2563781738282	554.5422973632814	-753.1043701171876	-320.4760742187501	361.9915466308594	-719.8411254882814	-352.1725158691407	276.2025451660157	-662.3840942382814	-315.9628601074219	274.8561401367188	-693.7731933593751	-322.6364746093751	233.3504333496094	-732.8496704101564	-376.1369934082032	119.0437927246094	-702.7458496093751	-345.9223022460938	144.9138336181641	-787.9636230468752	-439.9559326171876	101.634765625	-765.2886352539064	-229.2096099853516	59.61679840087892	-777.3592529296877	-223.0838470458985	59.72175598144533	-725.1405639648439	-273.5032348632813	28.83624649047852	-673.3750000000001	
905	4.52	-231.6025848388672	1808.438842773438	-627.5606689453126	-387.0219726562501	1761.812255859375	-707.7930908203126	-215.1164245605469	1817.060668945313	-770.730163574219	-401.3226318359376	1599.802001953125	-716.2253417968751	-417.1485290527345	1296.186767578125	-707.4068603515626	-242.5854644775391	1554.416259765625	-704.1489868164064	-259.5177612304688	1605.556884765625	-857.2170410156252	-110.1317901611328	1543.220703125	-972.8369140625002	-84.92200469970705	1579.922241210938	-947.8774414062502	-40.12028884887696	1545.287353515625	-967.449157714844	35.90882110595704	1550.3671875	-953.0454711914065	42.31536483764649	1493.359375	-920.9627685546877	303.9502258300782	1594.916381835938	-923.7890625000002	399.2537536621095	1595.405029296875	-844.2614746093752	-266.7743530273438	1605.211059570313	-551.2034912109376	-106.1008529663086	1516.620849609375	-450.5168762207032	-83.8979949951172	1555.691162109375	-474.0238037109376	-37.32638931274415	1525.532958984375	-454.5790100097657	29.88767051696778	1517.90625	-466.1437988281251	34.71679687500001	1460.305541992188	-517.4112548828126	297.8861389160157	1562.902099609375	-482.3749389648439	386.2203369140626	1582.580932617188	-553.2335205078126	-253.8890228271485	1094.217895507813	-854.465026855469	-244.9455566406251	1070.4912109375	-616.2273559570314	-436.5961914062501	1180.277465820313	-707.0725097656251	-447.0625000000001	1152.224609375	-737.2070312500001	-439.8641357421876	1145.875610351563	-680.1826171875001	-257.0700988769532	832.3816528320315	-956.947692871094	-212.0930480957032	759.2708740234376	-958.6427001953127	-168.2613677978516	762.2457275390626	-931.8883056640627	-232.6324462890626	701.6569824218751	-959.803649902344	-241.8518829345704	623.9575195312501	-948.5691528320315	-218.0609893798829	593.6015625000001	-820.1947021484377	-327.5296325683594	529.4082641601564	-914.373474121094	-384.0668334960939	586.5777587890626	-944.8183593750002	-379.9105224609376	542.8909301757814	-937.6961669921877	-451.2364807128907	516.8087158203126	-903.156188964844	-653.9833374023439	551.6508178710939	-878.8775024414065	-624.4212036132814	500.3086547851564	-803.709167480469	-630.9171142578126	599.6094360351564	-813.3313598632815	-749.4758300781251	413.3386840820314	-799.7535400390627	nan	nan	nan	-783.4483032226565	479.4396362304689	-876.9615478515627	-371.7887878417969	870.5443115234377	-562.2532958984376	-340.6574096679688	812.0581054687502	-562.7313232421876	-307.7661132812501	808.9871215820315	-564.7477416992189	-375.3400878906251	738.8752441406251	-586.7985839843751	-380.3608093261719	556.8998413085939	-617.8581542968751	-350.6341857910157	554.5240478515626	-753.0234375000001	-320.0906982421876	361.9242858886719	-719.8272094726564	-352.1017456054688	276.0812683105469	-662.3655395507814	-315.8293762207032	274.7032775878907	-693.6915283203126	-322.5629272460938	233.2691802978516	-732.8414916992189	-376.0830688476563	118.9662017822266	-702.7526245117189	-345.9336242675782	144.898910522461	-787.945251464844	-439.9505310058595	101.6277008056641	-765.2807617187501	-229.3840637207032	59.8515090942383	-777.3065185546877	-223.1249694824219	59.7065773010254	-725.1712646484376	-273.4677734375001	28.92257308959962	-673.3156738281251	
906	4.525	-231.8002319335938	1808.476928710938	-627.6477050781251	-387.2230834960939	1761.818725585938	-707.8528442382814	-215.5219268798829	1817.143676757813	-770.8623046875002	-401.6344604492189	1599.828125	-716.2123413085939	-417.2391662597657	1296.097900390625	-707.2803955078126	-242.7544250488282	1554.508422851563	-704.0651855468751	-259.6867065429688	1605.572021484375	-857.1270141601565	-110.2500457763672	1543.133544921875	-972.7933349609377	-84.99371337890626	1579.905517578125	-947.8467407226565	-40.27150344848634	1545.169799804688	-967.386657714844	35.72140502929688	1550.269409179688	-952.8898925781252	42.29407119750977	1493.350952148438	-921.0465087890627	303.7214355468751	1594.72802734375	-923.5909423828127	399.0864868164064	1595.203857421875	-844.0632324218752	-266.8849182128907	1605.3046875	-551.2258300781251	-106.4507141113282	1516.485595703125	-450.4949645996095	-84.25276947021486	1555.5869140625	-473.9615173339845	-37.44305419921876	1525.513549804688	-454.555877685547	29.73273086547852	1518.020385742188	-466.1589965820314	34.50197219848634	1460.314331054688	-517.4614257812501	297.6236267089844	1562.875366210938	-482.3479003906251	385.7589111328126	1582.714233398438	-553.1859130859376	-253.736801147461	1094.21044921875	-854.3095703125002	-244.8624725341797	1070.571044921875	-616.0010986328126	-436.5685119628907	1180.15673828125	-706.8412475585939	-447.060760498047	1152.131469726563	-737.0667114257814	-439.7906188964845	1145.763061523438	-680.0201416015626	-256.6345520019532	832.3662719726565	-956.5301513671877	-211.6992797851563	759.3380126953126	-958.1643066406252	-167.4774017333985	762.2989501953126	-931.6006469726565	-232.2064819335938	701.7344360351564	-959.379333496094	-241.2288513183594	624.0815429687501	-948.1324462890627	-217.7050933837891	593.7103881835939	-819.554382324219	-327.0986022949219	530.4056396484376	-914.2122192382815	-383.5940246582032	587.3540649414064	-944.1732177734377	-379.5533142089844	543.3330688476564	-937.2661132812502	-450.811004638672	517.7912597656251	-903.2072753906252	-653.6724243164064	552.9213256835939	-878.5118408203127	-623.8255615234376	501.8738098144532	-805.072692871094	-630.3923950195314	600.7100830078126	-812.870788574219	-749.6069335937501	414.7117919921876	-799.0944824218752	nan	nan	nan	-783.2093505859377	481.1214294433595	-876.3247680664065	-371.5225830078126	870.5153808593752	-562.1397094726564	-340.2231750488282	812.142272949219	-562.7218627929689	-307.4874267578126	808.8989868164065	-564.5138549804689	-375.0299377441407	738.8467407226564	-586.7532958984376	-379.8617553710938	556.9020996093751	-617.7645874023439	-349.8563537597657	554.4702148437501	-752.9146728515626	-319.6953125000001	361.8535461425782	-719.8355712890626	-351.8744506835938	276.0759582519532	-662.3774414062501	-315.4636535644532	274.6485290527344	-693.7138671875001	-322.4479675292969	233.1422576904297	-732.7888793945314	-376.0827636718751	118.9268112182617	-702.7483520507814	-345.8959655761719	144.882308959961	-787.9653320312502	-439.9488830566407	101.6275634765625	-765.2688598632814	-229.3744049072266	59.73631286621095	-777.2777099609377	-223.0984344482422	59.75953292846681	-725.1836547851564	-273.5329589843751	28.79125022888184	-673.3674316406251	
